<svg width="30" height="31" viewBox="0 0 30 31" fill="none" xmlns="http://www.w3.org/2000/svg">
<circle cx="15" cy="15.6133" r="15" fill="white"/>
<path d="M8.22154 22.6722H11.3056V12.6878H8.22154V22.6722Z" fill="black"/>
<path d="M7.94116 9.50031C7.94116 10.4847 8.73555 11.2816 9.76359 11.2816C10.7449 11.2816 11.5393 10.4847 11.5393 9.50031C11.5393 8.51593 10.7449 7.67218 9.76359 7.67218C8.73555 7.67218 7.94116 8.51593 7.94116 9.50031Z" fill="black"/>
<path d="M19.8103 22.6722H22.9412V17.1878C22.9412 14.5159 22.3337 12.4066 19.2028 12.4066C17.7075 12.4066 16.6795 13.2503 16.2589 14.0472H16.2122V12.6878H13.2683V22.6722H16.3524V17.7503C16.3524 16.4378 16.586 15.1722 18.2215 15.1722C19.8103 15.1722 19.8103 16.6722 19.8103 17.7972V22.6722Z" fill="black"/>
</svg>
